<?xml version="1.0" encoding="UTF-8"?>
<svg xmlns="http://www.w3.org/2000/svg" xmlns:xlink="http://www.w3.org/1999/xlink" width="1919pt" height="1143pt" viewBox="0 0 1919 1143" version="1.1">
<defs>
<filter id="alpha" filterUnits="objectBoundingBox" x="0%" y="0%" width="100%" height="100%">
  <feColorMatrix type="matrix" in="SourceGraphic" values="0 0 0 0 1 0 0 0 0 1 0 0 0 0 1 0 0 0 1 0"/>
</filter>
<mask id="mask0">
  <g filter="url(#alpha)">
<rect x="0" y="0" width="1919" height="1143" style="fill:rgb(0%,0%,0%);fill-opacity:0.2;stroke:none;"/>
  </g>
</mask>
<clipPath id="clip1">
  <rect width="1919" height="1143"/>
</clipPath>
<g id="surface6" clip-path="url(#clip1)">
<path style=" stroke:none;fill-rule:nonzero;fill:rgb(100%,100%,100%);fill-opacity:1;" d="M 1792.027344 171.460938 C 1792.027344 171.460938 1694.285156 141.007812 1564.019531 174.738281 C 1477.214844 197.214844 1411.726562 273.199219 1294.15625 295.652344 C 1214.765625 310.816406 1113.382812 270.890625 1026.160156 293.585938 C 937.078125 316.769531 858.890625 401.675781 723.492188 437.996094 C 588.089844 474.320312 451.011719 423.773438 341.8125 448.976562 C 154.195312 492.28125 42.207031 592.53125 37.34375 586.183594 L 0 436.347656 L 1749.292969 0 Z M 1792.027344 171.460938 "/>
</g>
<mask id="mask1">
  <g filter="url(#alpha)">
<rect x="0" y="0" width="1919" height="1143" style="fill:rgb(0%,0%,0%);fill-opacity:0.4;stroke:none;"/>
  </g>
</mask>
<clipPath id="clip2">
  <rect width="1919" height="1143"/>
</clipPath>
<g id="surface9" clip-path="url(#clip2)">
<path style=" stroke:none;fill-rule:nonzero;fill:rgb(100%,100%,100%);fill-opacity:1;" d="M 1760.253906 43.984375 C 1760.253906 43.984375 1719.953125 146.421875 1499.277344 198.582031 C 1323.527344 240.128906 1274.074219 192.925781 1172.128906 218.222656 C 1088.160156 239.0625 1007.53125 323.785156 919.535156 343.195312 C 832.347656 362.421875 738.410156 320.035156 653.484375 340.710938 C 570.75 360.855469 518.4375 447.769531 386.882812 482.941406 C 255.328125 518.117188 204.078125 478.703125 142.023438 475.171875 C 45.519531 469.691406 9.339844 473.847656 9.339844 473.847656 L -0.00390625 436.347656 L 1749.292969 0 Z M 1760.253906 43.984375 "/>
</g>
<mask id="mask2">
  <g filter="url(#alpha)">
<rect x="0" y="0" width="1919" height="1143" style="fill:rgb(0%,0%,0%);fill-opacity:0.6;stroke:none;"/>
  </g>
</mask>
<clipPath id="clip3">
  <rect width="1919" height="1143"/>
</clipPath>
<g id="surface12" clip-path="url(#clip3)">
<path style=" stroke:none;fill-rule:nonzero;fill:rgb(100%,100%,100%);fill-opacity:1;" d="M 22.460938 526.46875 C 108.632812 504.972656 107.15625 444.882812 379.664062 380.511719 C 453.566406 363.054688 629.625 404.722656 710.84375 387.246094 C 804.617188 367.070312 884.691406 278.535156 979.96875 255.140625 C 1077.3125 231.238281 1179.195312 266.570312 1270.964844 247.53125 C 1371.597656 226.652344 1454.660156 120.90625 1538.179688 107.773438 C 1714.332031 80.082031 1777.472656 113.066406 1777.472656 113.066406 L 1749.292969 0 L 0 436.34375 Z M 22.460938 526.46875 "/>
</g>
</defs>
<g id="surface1">
<path style=" stroke:none;fill-rule:nonzero;fill:rgb(17.647059%,56.078431%,100%);fill-opacity:1;" d="M 1918.40625 708.277344 L 176.082031 1142.882812 L 0.578125 438.667969 L 1742.902344 4.0625 Z M 1918.40625 708.277344 "/>
<use xlink:href="#surface6" mask="url(#mask0)"/>
<use xlink:href="#surface9" mask="url(#mask1)"/>
<use xlink:href="#surface12" mask="url(#mask2)"/>
<path style=" stroke:none;fill-rule:nonzero;fill:rgb(100%,100%,100%);fill-opacity:1;" d="M 9.183594 473.195312 C 18.308594 464.542969 87.605469 438.1875 234.820312 423.675781 C 303.597656 416.898438 374.058594 448.71875 455.917969 429.410156 C 537.433594 410.183594 628.730469 330.613281 718.972656 309.675781 C 848.753906 279.554688 909.945312 315.898438 998.800781 293.992188 C 1084.367188 272.902344 1142.402344 220.082031 1221.945312 197.742188 C 1340.914062 164.332031 1457.199219 186.140625 1551.886719 162.796875 C 1711.699219 123.394531 1760.066406 43.21875 1760.066406 43.21875 L 1749.292969 0 L 0 436.34375 Z M 9.183594 473.195312 "/>
</g>
</svg>
