<?xml version="1.0" encoding="UTF-8"?>
<svg xmlns="http://www.w3.org/2000/svg" xmlns:xlink="http://www.w3.org/1999/xlink" width="4045pt" height="1080pt" viewBox="0 0 4045 1080" version="1.1">
<defs>
<filter id="alpha" filterUnits="objectBoundingBox" x="0%" y="0%" width="100%" height="100%">
  <feColorMatrix type="matrix" in="SourceGraphic" values="0 0 0 0 1 0 0 0 0 1 0 0 0 0 1 0 0 0 1 0"/>
</filter>
<mask id="mask0">
  <g filter="url(#alpha)">
<rect x="0" y="0" width="4045" height="1080" style="fill:rgb(0%,0%,0%);fill-opacity:0.2;stroke:none;"/>
  </g>
</mask>
<clipPath id="clip1">
  <rect x="0" y="0" width="4045" height="1080"/>
</clipPath>
<g id="surface5" clip-path="url(#clip1)">
<path style=" stroke:none;fill-rule:nonzero;fill:rgb(100%,100%,100%);fill-opacity:1;" d="M 0 683.585938 C 0 683.585938 196.265625 802.941406 498.148438 800.246094 C 699.3125 798.449219 883.132812 668.636719 1151.25 683.585938 C 1332.316406 693.683594 1531.367188 835.644531 1733.558594 833.582031 C 1940.070312 831.496094 2156.324219 689.140625 2470.828125 683.585938 C 2785.335938 678.03125 3056.304688 862.480469 3307.726562 866.914062 C 3739.664062 874.527344 4037.851562 717.128906 4045 733.582031 L 4045 1080 L 0 1080 Z M 0 683.585938 "/>
</g>
<mask id="mask1">
  <g filter="url(#alpha)">
<rect x="0" y="0" width="4045" height="1080" style="fill:rgb(0%,0%,0%);fill-opacity:0.4;stroke:none;"/>
  </g>
</mask>
<clipPath id="clip2">
  <rect x="0" y="0" width="4045" height="1080"/>
</clipPath>
<g id="surface8" clip-path="url(#clip2)">
<path style=" stroke:none;fill-rule:nonzero;fill:rgb(100%,100%,100%);fill-opacity:1;" d="M 0 978.320312 C 0 978.320312 143.332031 777.238281 652.027344 783.511719 C 1057.183594 788.507812 1139.253906 918.097656 1374.898438 918.375 C 1569.003906 918.601562 1790.507812 777.976562 1992.605469 783.511719 C 2192.851562 788.992188 2374.355469 932.238281 2570.460938 933.363281 C 2761.503906 934.4375 2922.558594 773.660156 3228.027344 768.53125 C 3533.5 763.398438 3623.695312 877.007812 3756.863281 918.382812 C 3963.980469 982.703125 4045 993.300781 4045 993.300781 L 4045 1080 L 0 1080 Z M 0 978.320312 "/>
</g>
<mask id="mask2">
  <g filter="url(#alpha)">
<rect x="0" y="0" width="4045" height="1080" style="fill:rgb(0%,0%,0%);fill-opacity:0.6;stroke:none;"/>
  </g>
</mask>
<clipPath id="clip3">
  <rect x="0" y="0" width="4045" height="1080"/>
</clipPath>
<g id="surface11" clip-path="url(#clip3)">
<path style=" stroke:none;fill-rule:nonzero;fill:rgb(100%,100%,100%);fill-opacity:1;" d="M 4045 871.640625 C 3845.738281 871.640625 3816.34375 1003.238281 3188.191406 995.390625 C 3017.828125 993.238281 2657.152344 806.984375 2470.855469 800.925781 C 2255.757812 793.941406 2033.40625 943.152344 1813.289062 942.351562 C 1588.394531 941.527344 1385.769531 809.308594 1175.648438 800.925781 C 945.234375 791.730469 707.03125 976.796875 518.082031 960.027344 C 119.5625 924.679688 0 818.601562 0 818.601562 L 0 1080 L 4045 1080 Z M 4045 871.640625 "/>
</g>
</defs>
<g id="surface1">
<path style=" stroke:none;fill-rule:nonzero;fill:rgb(17.647059%,56.078431%,100%);fill-opacity:1;" d="M 0 0 L 4028.882812 0 L 4028.882812 1074.625 L 0 1074.625 Z M 0 0 "/>
<use xlink:href="#surface5" mask="url(#mask0)"/>
<use xlink:href="#surface8" mask="url(#mask1)"/>
<use xlink:href="#surface11" mask="url(#mask2)"/>
<path style=" stroke:none;fill-rule:nonzero;fill:rgb(100%,100%,100%);fill-opacity:1;" d="M 4045 994.808594 C 4020.441406 1008.6875 3855.28125 1028.421875 3526.917969 980.085938 C 3373.519531 957.492188 3237.378906 849.976562 3048.6875 847.5625 C 2860.796875 845.15625 2618.871094 968.777344 2411.050781 965.359375 C 2112.160156 960.457031 1998.65625 848.132812 1793.34375 847.5625 C 1595.621094 847.027344 1440.617188 930.476562 1255.335938 935.914062 C 978.214844 944.058594 736.894531 833.433594 518.082031 832.835938 C 148.800781 831.835938 0 980.058594 0 980.058594 L 0 1080 L 4045 1080 Z M 4045 994.808594 "/>
</g>
</svg>
