<?xml version="1.0" encoding="UTF-8"?>
<svg xmlns="http://www.w3.org/2000/svg" xmlns:xlink="http://www.w3.org/1999/xlink" width="1919pt" height="1269pt" viewBox="0 0 1919 1269" version="1.1">
<defs>
<filter id="alpha" filterUnits="objectBoundingBox" x="0%" y="0%" width="100%" height="100%">
  <feColorMatrix type="matrix" in="SourceGraphic" values="0 0 0 0 1 0 0 0 0 1 0 0 0 0 1 0 0 0 1 0"/>
</filter>
<mask id="mask0">
  <g filter="url(#alpha)">
<rect x="0" y="0" width="1919" height="1269" style="fill:rgb(0%,0%,0%);fill-opacity:0.2;stroke:none;"/>
  </g>
</mask>
<clipPath id="clip1">
  <rect x="0" y="0" width="1919" height="1269"/>
</clipPath>
<g id="surface5" clip-path="url(#clip1)">
<path style=" stroke:none;fill-rule:nonzero;fill:rgb(100%,100%,100%);fill-opacity:1;" d="M 0 1081.417969 C 0 1081.417969 93.109375 1137.898438 236.324219 1136.625 C 331.757812 1135.777344 418.957031 1074.347656 546.164062 1081.421875 C 632.070312 1086.195312 726.503906 1153.363281 822.429688 1152.398438 C 920.398438 1151.410156 1023.003906 1084.054688 1172.195312 1081.417969 C 1321.386719 1078.78125 1449.957031 1166.070312 1569.230469 1168.167969 C 1774.144531 1171.769531 1915.597656 1097.289062 1919 1105.070312 L 1919 1269 L 0 1269 Z M 0 1081.417969 "/>
</g>
<mask id="mask1">
  <g filter="url(#alpha)">
<rect x="0" y="0" width="1919" height="1269" style="fill:rgb(0%,0%,0%);fill-opacity:0.4;stroke:none;"/>
  </g>
</mask>
<clipPath id="clip2">
  <rect x="0" y="0" width="1919" height="1269"/>
</clipPath>
<g id="surface8" clip-path="url(#clip2)">
<path style=" stroke:none;fill-rule:nonzero;fill:rgb(100%,100%,100%);fill-opacity:1;" d="M 0 1220.8125 C 0 1220.8125 68 1125.515625 309.332031 1128.492188 C 501.542969 1130.859375 540.464844 1192.273438 652.269531 1192.40625 C 744.355469 1192.515625 849.441406 1125.871094 945.320312 1128.492188 C 1040.316406 1131.09375 1126.425781 1198.984375 1219.460938 1199.507812 C 1310.09375 1200.015625 1386.5 1123.828125 1531.417969 1121.394531 C 1676.335938 1118.960938 1719.128906 1172.800781 1782.308594 1192.40625 C 1880.5625 1222.890625 1919 1227.914062 1919 1227.914062 L 1919 1269 L 0 1269 Z M 0 1220.8125 "/>
</g>
<mask id="mask2">
  <g filter="url(#alpha)">
<rect x="0" y="0" width="1919" height="1269" style="fill:rgb(0%,0%,0%);fill-opacity:0.6;stroke:none;"/>
  </g>
</mask>
<clipPath id="clip3">
  <rect x="0" y="0" width="1919" height="1269"/>
</clipPath>
<g id="surface11" clip-path="url(#clip3)">
<path style=" stroke:none;fill-rule:nonzero;fill:rgb(100%,100%,100%);fill-opacity:1;" d="M 1919 1170.933594 C 1824.464844 1170.933594 1810.523438 1232.871094 1512.511719 1229.179688 C 1431.6875 1228.167969 1260.578125 1140.5 1172.195312 1137.65625 C 1070.144531 1134.359375 964.664062 1204.59375 860.234375 1204.21875 C 753.546875 1203.828125 657.417969 1141.597656 557.738281 1137.65625 C 448.433594 1133.324219 335.421875 1220.425781 245.777344 1212.535156 C 56.71875 1195.898438 0 1145.972656 0 1145.972656 L 0 1269.003906 L 1919 1269.003906 Z M 1919 1170.933594 "/>
</g>
<mask id="mask3">
  <g filter="url(#alpha)">
<rect x="0" y="0" width="1919" height="1269" style="fill:rgb(0%,0%,0%);fill-opacity:0.141176;stroke:none;"/>
  </g>
</mask>
<clipPath id="clip4">
  <rect x="0" y="0" width="1919" height="1269"/>
</clipPath>
<g id="surface14" clip-path="url(#clip4)">
<path style=" stroke:none;fill-rule:nonzero;fill:rgb(100%,100%,100%);fill-opacity:1;" d="M 1300.40625 247.726562 L 1067.527344 417.035156 C 1048.75 430.6875 1019.785156 422.832031 1002.820312 399.488281 C 985.859375 376.144531 987.335938 346.171875 1006.113281 332.519531 L 1135.382812 238.539062 C 1154.160156 224.886719 1155.632812 194.90625 1138.667969 171.5625 C 1121.707031 148.21875 1092.75 140.382812 1073.976562 154.03125 L 570.222656 520.273438 C 551.441406 533.925781 549.972656 563.90625 566.929688 587.242188 C 583.882812 610.574219 612.855469 618.441406 631.632812 604.789062 L 777.140625 499.003906 C 795.921875 485.351562 824.886719 493.207031 841.839844 516.539062 C 858.792969 539.875 857.332031 569.867188 838.554688 583.519531 L 559.03125 786.738281 C 540.25 800.390625 538.78125 830.371094 555.742188 853.714844 C 572.707031 877.058594 601.664062 884.90625 620.441406 871.253906 L 782.292969 753.585938 C 801.074219 739.933594 830.035156 747.789062 847 771.132812 C 863.960938 794.476562 862.492188 824.457031 843.714844 838.109375 L 766.472656 894.265625 C 747.695312 907.917969 746.222656 937.894531 763.1875 961.246094 C 780.152344 984.59375 809.105469 992.433594 827.886719 978.78125 L 1331.636719 612.546875 C 1350.414062 598.894531 1351.886719 568.910156 1334.929688 545.578125 C 1317.976562 522.242188 1289.003906 514.378906 1270.226562 528.03125 L 1072.695312 671.636719 C 1053.914062 685.289062 1024.949219 677.433594 1007.988281 654.089844 C 991.027344 630.746094 992.496094 600.765625 1011.273438 587.113281 L 1361.828125 332.253906 C 1380.605469 318.601562 1382.078125 288.625 1365.121094 265.285156 C 1348.160156 241.945312 1319.1875 234.074219 1300.40625 247.726562 Z M 1300.40625 247.726562 "/>
</g>
</defs>
<g id="surface1">
<path style=" stroke:none;fill-rule:nonzero;fill:rgb(39.215686%,67.45098%,100%);fill-opacity:1;" d="M 0 0 L 1919 0 L 1919 1267 L 0 1267 Z M 0 0 "/>
<path style="fill:none;stroke-width:1;stroke-linecap:butt;stroke-linejoin:miter;stroke:rgb(59.215686%,59.215686%,59.215686%);stroke-opacity:1;stroke-miterlimit:10;" d="M 0.499739 0.499606 L 958.500261 0.499606 L 958.500261 632.49923 L 0.499739 632.49923 Z M 0.499739 0.499606 " transform="matrix(2.001043,0,0,2.001577,0,0)"/>
<use xlink:href="#surface5" mask="url(#mask0)"/>
<use xlink:href="#surface8" mask="url(#mask1)"/>
<use xlink:href="#surface11" mask="url(#mask2)"/>
<path style=" stroke:none;fill-rule:nonzero;fill:rgb(100%,100%,100%);fill-opacity:1;" d="M 1919 1228.554688 C 1907.347656 1235.140625 1828.996094 1244.511719 1673.214844 1221.566406 C 1600.433594 1210.84375 1535.855469 1159.796875 1446.335938 1158.652344 C 1357.199219 1157.507812 1242.429688 1216.195312 1143.835938 1214.574219 C 1002.039062 1212.246094 948.191406 1158.929688 850.789062 1158.652344 C 756.996094 1158.390625 683.449219 1198.015625 595.550781 1200.59375 C 464.074219 1204.453125 349.582031 1151.941406 245.785156 1151.660156 C 70.589844 1151.183594 0 1221.566406 0 1221.566406 L 0 1269.003906 L 1919 1269.003906 Z M 1919 1228.554688 "/>
<use xlink:href="#surface14" mask="url(#mask3)"/>
</g>
</svg>
